<?xml version="1.0" standalone="no"?>
<!DOCTYPE svg PUBLIC "-//W3C//DTD SVG 20010904//EN"
 "http://www.w3.org/TR/2001/REC-SVG-20010904/DTD/svg10.dtd">
<svg version="1.0" xmlns="http://www.w3.org/2000/svg"
 width="752.000000pt" height="752.000000pt" viewBox="0 0 752.000000 752.000000"
 preserveAspectRatio="xMidYMid meet">
<metadata>
Created by potrace 1.14, written by Peter Selinger 2001-2017
</metadata>
<g transform="translate(0.000000,752.000000) scale(0.100000,-0.100000)"
fill="#000000" stroke="none">
<path d="M5522 7346 c-30 -7 -92 -32 -138 -56 -123 -60 -218 -157 -278 -282
-52 -109 -66 -169 -66 -282 0 -164 55 -305 167 -426 119 -129 260 -196 433
-207 306 -19 587 197 656 503 21 98 15 232 -16 324 -64 192 -221 350 -410 412
-82 27 -268 34 -348 14z"/>
<path d="M3266 6254 c-26 -9 -64 -25 -83 -37 -28 -18 -1091 -1224 -1185 -1345
-43 -54 -61 -123 -56 -206 8 -123 75 -219 191 -271 51 -24 68 -27 140 -23 86
3 144 25 196 71 13 12 249 282 524 600 l500 577 279 0 c267 0 279 -1 266 -18
-7 -10 -493 -575 -1081 -1255 l-1068 -1236 -792 -3 -793 -3 -76 -38 c-89 -43
-152 -108 -194 -195 -36 -74 -44 -201 -20 -284 37 -129 147 -240 276 -279 64
-19 90 -20 1046 -17 l979 4 77 23 c158 47 162 50 615 555 226 253 422 470 436
483 l24 24 486 -472 c327 -317 486 -478 483 -488 -3 -9 -95 -417 -205 -908
-127 -563 -201 -912 -201 -947 0 -77 33 -174 82 -240 185 -249 569 -212 703
69 15 33 110 435 275 1170 139 616 256 1138 261 1160 22 103 4 245 -42 338
-14 27 -176 198 -469 492 l-448 450 463 535 c255 294 467 536 472 537 5 2 150
-139 323 -313 279 -281 322 -320 380 -348 118 -56 257 -36 368 53 20 16 267
259 547 540 588 589 570 566 570 720 0 81 -4 103 -23 139 -35 67 -98 129 -161
159 -48 24 -68 28 -141 27 -141 -1 -129 9 -605 -465 l-420 -419 -510 510
c-540 540 -557 555 -673 579 -36 8 -305 11 -860 10 -686 0 -814 -3 -856 -15z"/>
</g>
</svg>
